<svg xmlns="http://www.w3.org/2000/svg" viewBox="0 0 612.23 293.89"><defs><style>.cls-1{fill:#f3161c;}</style></defs><g id="Layer_2" data-name="Layer 2"><g id="Layer_1-2" data-name="Layer 1"><path class="cls-1" d="M566.33,79.84q8.61-.86,17.21-1.77c-28.27,22-48,53.66-66.75,84-23.49,37.89-48.11,77.87-89.84,97.72-25.7,12.22-54.6,16.24-82.68,18.57-29.55,2.45-59.58,4.78-89.23,3.13-28.78-1.59-56.82-8.42-81.22-24.21-22.49-14.55-40.83-34.92-56.39-56.53C88.9,161.07,68.69,115.85,39.15,77c55,34.74,117.53,58,181.3,70,76.72,14.45,157.6,13.3,232.57-9.68C493.75,124.82,532.47,105.76,566.33,79.84Z"/><path class="cls-1" d="M524.79,60.42c9.4,3.28,18.93,6.22,28.58,8.63q-91.58,8.39-183.67,8.37a2006.5,2006.5,0,0,1-227.9-13.1Q89.74,58.34,38,49.55c29.6-6.91,58.19-17.79,87.43-26.33,33.18-9.68,68.63-15.59,102.81-7.43,18.06,4.32,34.68,12.69,47.78,26a6.1,6.1,0,0,0,8.49,0c28.11-27.69,70.7-33.43,108.22-27.12C439.06,22.45,480.86,45.07,524.79,60.42Z"/><path d="M604.39,64.68c6.28-2,11.26,7.43,4.86,10.87A135,135,0,0,0,595,84.37c-36.45,25.88-57.39,68-81,104.68-12.17,18.94-25.32,37.62-41.57,53.31a156.19,156.19,0,0,1-65.21,37.54c-28.14,8.27-57.73,10.25-86.85,12.09-30.22,1.91-60.67,3.55-90.72-1.23a162.43,162.43,0,0,1-77.07-34.23c-21.14-17-38.29-38.58-53.31-61C67.69,148.34,45.06,94.39,3.33,54.76A4.66,4.66,0,0,1,.79,52.07c-2-3.13,0-6.83,3-8.25a6.49,6.49,0,0,1,2.33-.71c24.24-2.61,47.73-9.56,70.86-17C114.17,14.08,151.39.61,191,0c32.14-.49,65.2,7.48,89.4,29.28,15.3-13.41,34.26-22,54.22-26,95.33-18.93,173.75,58.75,266.66,60.44A6,6,0,0,1,604.39,64.68ZM583.54,78.07q-8.61.92-17.21,1.77c-33.86,25.92-72.58,45-113.31,57.47-75,23-155.85,24.13-232.57,9.68-63.77-12-126.26-35.24-181.3-70,29.54,38.84,49.75,84.06,78.28,123.69,15.56,21.61,33.9,42,56.39,56.53,24.4,15.79,52.44,22.62,81.22,24.21,29.65,1.65,59.68-.68,89.23-3.13,28.08-2.33,57-6.35,82.68-18.57,41.73-19.85,66.35-59.83,89.84-97.72C535.57,131.73,555.27,100.11,583.54,78.07Zm-30.17-9c-9.65-2.41-19.18-5.35-28.58-8.63-43.93-15.35-85.73-38-132-45.77-37.52-6.31-80.11-.57-108.22,27.12a6.1,6.1,0,0,1-8.49,0c-13.1-13.29-29.72-21.66-47.78-26-34.18-8.16-69.63-2.25-102.81,7.43C96.22,31.76,67.63,42.64,38,49.55Q89.72,58.3,141.8,64.32a2006.5,2006.5,0,0,0,227.9,13.1Q461.68,77.47,553.37,69.05ZM542.73,82q-36.92,3.18-73.93,5a2006.88,2006.88,0,0,1-230.21-2A2017.67,2017.67,0,0,1,37.35,61.55a479.54,479.54,0,0,0,87.57,45.39c71.79,28.41,150.1,41.56,227.23,36.45C419.58,138.92,486.38,119.49,542.73,82Z"/></g></g></svg>